# xmcd CD database file
#
# Track frame offsets:
#	150
#	9760
#	23365
#	35425
#	47973
#	59915
#	72610
#	89378
#	102250
#	114238
#	124690
#	134698
#	146420
#	157810
#	170658
#	182283
#	193438
#	205805
#
# Disc length: 2912 seconds
#
# Revision: 0
# Processed by: cddbd v1.5.1PL2 Copyright (c) Steve Scherf et al.
# Submitted via: CDex 1.50
#
DISCID=fb0b5e12
DTITLE=Variaus - Country greatest CD 2
DYEAR=2000
DGENRE=Country
TTITLE0=Waylon Jennings - Theme from The Dukes of Hazzard (Good ol' boys)
TTITLE1=Jim Ed Brown and Helen Cornelius - You don't bring me flowers
TTITLE2=Porter Wagoner and Dolly Parton - Our love
TTITLE3=Gary Stewart - She's actin' single (i'm drinkin' doubles)
TTITLE4=Dolly Parton - Jolene
TTITLE5=Charley Pride - Rhinestone cowboy
TTITLE6=Bobby Bare - Son of Hickory Holler's Tramp
TTITLE7=Jim Reeves - Distant drums
TTITLE8=Eddy Arnold - Make the world go away
TTITLE9=Connie Smith - Once a day
TTITLE10=George Hamilton IV - Abilene
TTITLE11=Skeeter Davis - The end of the world
TTITLE12=Don Gibson - Sea of heartbreak
TTITLE13=The Browns - The three bells
TTITLE14=Chet Atkins - You're just in love
TTITLE15=Hank Locklin - Send me the pillow you dream on
TTITLE16=Hank Snow - I'm moving on
TTITLE17=Porter Wagoner - A satisfied mind
EXTD=YEAR: 2000
EXTT0=
EXTT1=
EXTT2=
EXTT3=
EXTT4=
EXTT5=
EXTT6=
EXTT7=
EXTT8=
EXTT9=
EXTT10=
EXTT11=
EXTT12=
EXTT13=
EXTT14=
EXTT15=
EXTT16=
EXTT17=
PLAYORDER=
